<?xml version="1.0" encoding="UTF-8"?>
<!DOCTYPE svg PUBLIC "-//W3C//DTD SVG 1.1//EN" "http://www.w3.org/Graphics/SVG/1.1/DTD/svg11.dtd">
<!-- Creator: CorelDRAW -->
<svg xmlns="http://www.w3.org/2000/svg" xml:space="preserve" width="5.4189mm" height="5.4186mm" version="1.1" style="shape-rendering:geometricPrecision; text-rendering:geometricPrecision; image-rendering:optimizeQuality; fill-rule:evenodd; clip-rule:evenodd"
viewBox="0 0 28.11 28.11"
 xmlns:xlink="http://www.w3.org/1999/xlink"
 xmlns:xodm="http://www.corel.com/coreldraw/odm/2003">
 <defs>
  <style type="text/css">
   <![CDATA[
    .fil0 {fill:#FF7D00}
    .fil1 {fill:white;fill-rule:nonzero}
   ]]>
  </style>
 </defs>
 <g id="Слой_x0020_1">
  <metadata id="CorelCorpID_0Corel-Layer"/>
  <g id="_1768547418928">
   <path class="fil0" d="M14.06 0c7.76,0 14.06,6.29 14.06,14.06 0,7.76 -6.29,14.06 -14.06,14.06 -7.76,0 -14.06,-6.29 -14.06,-14.06 0,-7.76 6.29,-14.06 14.06,-14.06z"/>
   <path class="fil1" d="M11.13 15.51l0 -7.95c0,-1.36 -0.88,-2.26 -2.19,-2.26 -1.31,0 -2.19,0.9 -2.19,2.26l0 8.14c0,4.09 3.28,7.12 7.31,7.12 3.97,0 7.31,-3.07 7.31,-7.12l0 -8.14c0,-1.36 -0.88,-2.26 -2.19,-2.26 -1.31,0 -2.17,0.9 -2.17,2.26l0 7.95c0,1.83 -1.26,3.21 -2.95,3.21 -2.02,0 -2.93,-1.62 -2.93,-3.21z"/>
  </g>
 </g>
</svg>
