<?xml version="1.0" encoding="UTF-8"?>
<!DOCTYPE svg PUBLIC "-//W3C//DTD SVG 1.1//EN" "http://www.w3.org/Graphics/SVG/1.1/DTD/svg11.dtd">
<!-- Creator: CorelDRAW -->
<svg xmlns="http://www.w3.org/2000/svg" xml:space="preserve" width="700mm" height="198.695mm" version="1.1" style="shape-rendering:geometricPrecision; text-rendering:geometricPrecision; image-rendering:optimizeQuality; fill-rule:evenodd; clip-rule:evenodd"
viewBox="0 0 26701.27 7579.14"
 xmlns:xlink="http://www.w3.org/1999/xlink"
 xmlns:xodm="http://www.corel.com/coreldraw/odm/2003">
 <defs>
  <style type="text/css">
   <![CDATA[
    .fil0 {fill:#FF7D00}
    .fil1 {fill:black;fill-rule:nonzero}
   ]]>
  </style>
 </defs>
 <g id="Слой_x0020_1">
  <metadata id="CorelCorpID_0Corel-Layer"/>
  <g id="_1768579214832">
   <path class="fil0" d="M20688.43 0c2092.99,0 3789.57,1696.57 3789.57,3789.57 0,2092.88 -1696.57,3789.57 -3789.57,3789.57 -2092.88,0 -3789.57,-1696.68 -3789.57,-3789.57 0,-2092.99 1696.68,-3789.57 3789.57,-3789.57z"/>
   <path class="fil1" d="M-0 2095.4l0 3388.22c0,404.3 320.88,590.3 616.03,590.3l1052.41 0c1334.64,0 2207.4,-898.26 2207.4,-2226.67 0,-1450.25 -872.76,-2348.62 -2265.2,-2348.62l-1007.41 0c-352.96,0 -603.22,243.81 -603.22,596.76zm1180.72 2874.77l0 -2367.78 417.11 0c872.76,0 1058.76,654.46 1058.76,1199.98 0,352.96 -96.23,1167.8 -1001.06,1167.8l-474.8 0zm3208.46 571.25c0,365.76 237.46,609.57 590.41,609.57 352.85,0 590.3,-243.81 590.3,-609.57l0 -1841.74 1681.36 2201.05c115.5,141.12 327.23,250.27 487.72,250.27 352.85,0 590.3,-243.81 590.3,-609.57l0 -3503.83c0,-365.76 -237.46,-609.57 -590.3,-609.57 -352.96,0 -584.06,243.81 -584.06,609.57l0 1873.82 -1687.71 -2226.67c-102.58,-141.23 -320.77,-256.73 -487.61,-256.73 -352.96,0 -590.41,243.81 -590.41,609.57l0 3503.83zm4453.44 -2714.5c0,936.91 571.14,1193.63 1347.56,1411.71 417.11,115.5 667.38,192.57 667.38,385.03 0,243.92 -173.19,385.03 -481.26,385.03 -231,0 -481.26,-89.77 -692.99,-166.84l-57.8 -19.27c-89.88,-31.97 -173.19,-44.89 -243.81,-44.89 -308.07,0 -558.34,224.65 -558.34,539.07 0,705.91 1071.68,834.22 1604.29,834.22 904.83,0 1681.25,-590.41 1681.25,-1540.13 0,-911.18 -635.3,-1264.14 -1424.52,-1463.06 -365.76,-109.04 -590.41,-186.11 -590.41,-320.88 0,-186.11 192.46,-256.62 359.42,-256.62 160.38,0 333.58,38.43 526.15,128.31 83.42,38.43 173.19,57.69 269.42,57.69 308.07,0 558.34,-256.62 558.34,-571.04 0,-583.95 -879.11,-757.26 -1334.75,-757.26 -834.22,0 -1629.9,494.07 -1629.9,1398.91zm5242.66 -789.33l0 3503.83c0,365.76 237.46,609.57 590.41,609.57 352.96,0 590.41,-243.81 590.41,-609.57l0 -1219.25 1629.9 0 0 1219.25c0,365.76 237.35,609.57 590.41,609.57 352.96,0 590.3,-243.81 590.3,-609.57l0 -3503.83c0,-365.76 -237.35,-609.57 -590.3,-609.57 -353.07,0 -590.41,243.81 -590.41,609.57l0 1180.83 -1629.9 0 0 -1180.83c0,-365.76 -237.46,-609.57 -590.41,-609.57 -352.96,0 -590.41,243.81 -590.41,609.57zm5813.92 2143.35l0 -2143.35c0,-365.76 -237.46,-609.57 -590.3,-609.57 -352.96,0 -590.41,243.81 -590.41,609.57l0 2194.7c0,1103.64 885.46,1918.71 1969.94,1918.71 1071.68,0 1970.05,-827.87 1970.05,-1918.71l0 -2194.7c0,-365.76 -237.46,-609.57 -590.3,-609.57 -352.96,0 -583.95,243.81 -583.95,609.57l0 2143.35c0,494.18 -340.15,866.3 -795.79,866.3 -545.42,0 -789.22,-436.38 -789.22,-866.3zm3400.92 -2098.36l0 3394.57c0,352.96 250.27,596.76 616.03,596.76l1244.98 0c949.72,0 1540.13,-551.77 1540.13,-1450.25 0,-468.35 -295.26,-904.72 -731.53,-1078.03 256.62,-205.38 378.57,-481.26 378.57,-847.03 0,-699.45 -539.07,-1199.98 -1277.06,-1199.98l-1161.45 0c-352.96,0 -609.68,218.19 -609.68,583.95zm1174.37 1116.56l0 -635.3 340.15 0c83.31,0 352.85,25.73 352.85,295.15 0,282.34 -192.46,340.15 -352.85,340.15l-340.15 0zm0 1803.21l0 -731.53 506.99 0c231,0 506.88,57.69 506.88,340.04 0,352.96 -301.61,391.49 -436.38,391.49l-577.49 0z"/>
  </g>
 </g>
</svg>
