<?xml version="1.0" encoding="UTF-8"?>
<!DOCTYPE svg PUBLIC "-//W3C//DTD SVG 1.1//EN" "http://www.w3.org/Graphics/SVG/1.1/DTD/svg11.dtd">
<!-- Creator: CorelDRAW -->
<svg xmlns="http://www.w3.org/2000/svg" xml:space="preserve" width="700mm" height="629.512mm" version="1.1" style="shape-rendering:geometricPrecision; text-rendering:geometricPrecision; image-rendering:optimizeQuality; fill-rule:evenodd; clip-rule:evenodd"
viewBox="0 0 12615.87 11345.5"
 xmlns:xlink="http://www.w3.org/1999/xlink"
 xmlns:xodm="http://www.corel.com/coreldraw/odm/2003">
 <defs>
  <style type="text/css">
   <![CDATA[
    .fil0 {fill:#FF7D00}
    .fil1 {fill:black;fill-rule:nonzero}
   ]]>
  </style>
 </defs>
 <g id="Слой_x0020_1">
  <metadata id="CorelCorpID_0Corel-Layer"/>
  <g id="_1769442208240">
   <path class="fil0" d="M6603.14 3766.36c2092.88,0 3789.57,1696.68 3789.57,3789.57 0,2092.88 -1696.68,3789.57 -3789.57,3789.57 -2092.99,0 -3789.57,-1696.68 -3789.57,-3789.57 0,-2092.88 1696.57,-3789.57 3789.57,-3789.57z"/>
   <path class="fil1" d="M10389.1 8768.72l0 -731.53 506.99 0c231,0 506.99,57.8 506.99,340.04 0,352.96 -301.72,391.49 -436.38,391.49l-577.6 0zm0 -1803.21l0 -635.3 340.15 0c83.42,0 352.96,25.73 352.96,295.26 0,282.23 -192.57,340.04 -352.96,340.04l-340.15 0zm-1174.26 -1116.56l0 3394.57c0,352.96 250.27,596.87 616.03,596.87l1244.87 0c949.72,0 1540.13,-551.88 1540.13,-1450.36 0,-468.35 -295.26,-904.72 -731.53,-1078.03 256.62,-205.27 378.57,-481.26 378.57,-847.03 0,-699.45 -539.07,-1199.98 -1277.06,-1199.98l-1161.34 0c-352.96,0 -609.68,218.19 -609.68,583.95zm-3401.03 2098.36l0 -2143.35c0,-365.76 -237.46,-609.57 -590.3,-609.57 -352.96,0 -590.41,243.81 -590.41,609.57l0 2194.7c0,1103.75 885.56,1918.71 1970.05,1918.71 1071.57,0 1970.05,-827.76 1970.05,-1918.71l0 -2194.7c0,-365.76 -237.46,-609.57 -590.41,-609.57 -352.96,0 -583.95,243.81 -583.95,609.57l0 2143.35c0,494.18 -340.15,866.3 -795.68,866.3 -545.53,0 -789.33,-436.38 -789.33,-866.3zm-5813.81 -2143.35l0 3503.83c0,365.76 237.46,609.57 590.41,609.57 352.85,0 590.3,-243.81 590.3,-609.57l0 -1219.25 1629.9 0 0 1219.25c0,365.76 237.46,609.57 590.41,609.57 352.96,0 590.3,-243.81 590.3,-609.57l0 -3503.83c0,-365.76 -237.35,-609.57 -590.3,-609.57 -352.96,0 -590.41,243.81 -590.41,609.57l0 1180.83 -1629.9 0 0 -1180.83c0,-365.76 -237.46,-609.57 -590.3,-609.57 -352.96,0 -590.41,243.81 -590.41,609.57zm0 -5136.58l0 3388.22c0,404.3 320.88,590.3 616.03,590.3l1052.41 0c1334.64,0 2207.4,-898.37 2207.4,-2226.67 0,-1450.25 -872.76,-2348.73 -2265.2,-2348.73l-1007.41 0c-352.96,0 -603.22,243.92 -603.22,596.87zm1180.72 2874.77l0 -2367.89 417.11 0c872.76,0 1058.76,654.57 1058.76,1200.09 0,352.96 -96.23,1167.8 -1001.06,1167.8l-474.8 0zm3452.27 571.14c0,365.76 237.46,609.68 590.41,609.68 352.96,0 590.41,-243.92 590.41,-609.68l0 -1841.63 1681.25 2201.05c115.5,141.12 327.23,250.27 487.72,250.27 352.85,0 590.3,-243.92 590.3,-609.68l0 -3503.72c0,-365.76 -237.46,-609.57 -590.3,-609.57 -352.96,0 -583.95,243.81 -583.95,609.57l0 1873.82 -1687.82 -2226.67c-102.58,-141.23 -320.77,-256.73 -487.61,-256.73 -352.96,0 -590.41,243.81 -590.41,609.57l0 3503.72zm4716.62 -2714.39c0,936.91 571.14,1193.63 1347.56,1411.71 417.11,115.5 667.38,192.57 667.38,385.03 0,243.92 -173.19,385.03 -481.26,385.03 -231,0 -481.26,-89.77 -692.99,-166.84l-57.8 -19.27c-89.88,-32.08 -173.19,-44.89 -243.92,-44.89 -307.96,0 -558.23,224.65 -558.23,538.96 0,705.91 1071.68,834.33 1604.29,834.33 904.72,0 1681.25,-590.41 1681.25,-1540.13 0,-911.18 -635.3,-1264.14 -1424.52,-1463.06 -365.76,-109.04 -590.41,-186.11 -590.41,-320.88 0,-186.11 192.46,-256.62 359.31,-256.62 160.38,0 333.69,38.43 526.15,128.31 83.53,38.43 173.3,57.69 269.53,57.69 308.07,0 558.34,-256.73 558.34,-571.04 0,-583.95 -879.11,-757.26 -1334.75,-757.26 -834.22,0 -1629.9,494.07 -1629.9,1398.91z"/>
  </g>
 </g>
</svg>
