<?xml version="1.0" encoding="UTF-8"?>
<!DOCTYPE svg PUBLIC "-//W3C//DTD SVG 1.1//EN" "http://www.w3.org/Graphics/SVG/1.1/DTD/svg11.dtd">
<!-- Creator: CorelDRAW -->
<svg xmlns="http://www.w3.org/2000/svg" xml:space="preserve" width="700mm" height="629.512mm" version="1.1" style="shape-rendering:geometricPrecision; text-rendering:geometricPrecision; image-rendering:optimizeQuality; fill-rule:evenodd; clip-rule:evenodd"
viewBox="0 0 6106.85 5491.91"
 xmlns:xlink="http://www.w3.org/1999/xlink"
 xmlns:xodm="http://www.corel.com/coreldraw/odm/2003">
 <defs>
  <style type="text/css">
   <![CDATA[
    .fil0 {fill:#FF7D00}
    .fil1 {fill:white;fill-rule:nonzero}
   ]]>
  </style>
 </defs>
 <g id="Слой_x0020_1">
  <metadata id="CorelCorpID_0Corel-Layer"/>
  <g id="_1768579435792">
   <path class="fil0" d="M3196.32 1823.15c1013.08,0 1834.38,821.3 1834.38,1834.38 0,1013.14 -821.3,1834.38 -1834.38,1834.38 -1013.14,0 -1834.38,-821.25 -1834.38,-1834.38 0,-1013.08 821.25,-1834.38 1834.38,-1834.38z"/>
   <path class="fil1" d="M5028.96 4244.6l0 -354.1 245.41 0c111.82,0 245.41,27.98 245.41,164.65 0,170.85 -146.05,189.45 -211.29,189.45l-279.54 0zm0 -872.86l0 -307.52 164.65 0c40.38,0 170.85,12.45 170.85,142.92 0,136.67 -93.22,164.6 -170.85,164.6l-164.65 0zm-568.41 -540.48l0 1643.23c0,170.85 121.14,288.87 298.2,288.87l602.59 0c459.72,0 745.52,-267.14 745.52,-702.01 0,-226.76 -142.92,-437.99 -354.1,-521.88 124.22,-99.36 183.25,-232.96 183.25,-410.01 0,-338.58 -260.94,-580.87 -618.17,-580.87l-562.16 0c-170.91,0 -295.12,105.62 -295.12,282.67zm-1646.31 1015.73l0 -1037.46c0,-177.05 -114.94,-295.07 -285.74,-295.07 -170.85,0 -285.8,118.02 -285.8,295.07l0 1062.37c0,534.23 428.67,928.72 953.62,928.72 518.7,0 953.62,-400.69 953.62,-928.72l0 -1062.37c0,-177.05 -114.94,-295.07 -285.8,-295.07 -170.85,0 -282.67,118.02 -282.67,295.07l0 1037.46c0,239.21 -164.65,419.34 -385.16,419.34 -264.07,0 -382.09,-211.18 -382.09,-419.34zm-2814.24 -1037.46l0 1696.02c0,177.05 114.94,295.07 285.8,295.07 170.8,0 285.74,-118.02 285.74,-295.07l0 -590.19 788.97 0 0 590.19c0,177.05 114.94,295.07 285.8,295.07 170.85,0 285.74,-118.02 285.74,-295.07l0 -1696.02c0,-177.05 -114.89,-295.07 -285.74,-295.07 -170.85,0 -285.8,118.02 -285.8,295.07l0 571.54 -788.97 0 0 -571.54c0,-177.05 -114.94,-295.07 -285.74,-295.07 -170.85,0 -285.8,118.02 -285.8,295.07zm0 -2486.47l0 1640.11c0,195.71 155.32,285.74 298.2,285.74l509.43 0c646.05,0 1068.51,-434.81 1068.51,-1077.84 0,-702.01 -422.47,-1136.88 -1096.5,-1136.88l-487.65 0c-170.85,0 -292,118.07 -292,288.87zm571.54 1391.62l0 -1146.2 201.91 0c422.41,0 512.5,316.8 512.5,580.87 0,170.85 -46.58,565.34 -484.58,565.34l-229.83 0zm1671.11 276.47c0,177.05 114.94,295.07 285.8,295.07 170.8,0 285.74,-118.02 285.74,-295.07l0 -891.52 813.88 1065.44c55.91,68.36 158.4,121.14 236.09,121.14 170.8,0 285.74,-118.02 285.74,-295.07l0 -1696.07c0,-177.05 -114.94,-295.07 -285.74,-295.07 -170.85,0 -282.72,118.02 -282.72,295.07l0 907.04 -816.95 -1077.84c-49.66,-68.36 -155.27,-124.27 -236.03,-124.27 -170.85,0 -285.8,118.02 -285.8,295.07l0 1696.07zm2283.13 -1313.98c0,453.52 276.47,577.79 652.3,683.36 201.91,55.96 323.05,93.22 323.05,186.38 0,118.07 -83.89,186.38 -232.96,186.38 -111.82,0 -232.96,-43.45 -335.45,-80.76l-27.98 -9.27c-43.51,-15.53 -83.89,-21.78 -118.07,-21.78 -149.07,0 -270.22,108.74 -270.22,260.94 0,341.7 518.76,403.81 776.57,403.81 437.94,0 813.83,-285.74 813.83,-745.52 0,-441.07 -307.52,-611.92 -689.61,-708.21 -177.05,-52.78 -285.8,-90.04 -285.8,-155.32 0,-90.09 93.22,-124.22 173.98,-124.22 77.64,0 161.53,18.65 254.69,62.11 40.38,18.65 83.89,27.93 130.47,27.93 149.12,0 270.27,-124.22 270.27,-276.42 0,-282.67 -425.54,-366.56 -646.1,-366.56 -403.81,0 -788.97,239.16 -788.97,677.16z"/>
  </g>
 </g>
</svg>
